<svg xmlns="http://www.w3.org/2000/svg" version="1.1" xmlns:xlink="http://www.w3.org/1999/xlink" viewBox="0 0 13.151988701541422 8.303851901264874"><g transform="matrix(1,0,0,1,0.8662622951066483,5.475214606158226)"><g><path d=" M 0.1485 1.0649999999999997 Q 0.132 1.0649999999999997 0.1215 1.0544999999999998 Q 0.111 1.0439999999999998 0.111 1.0274999999999996 L 0.111 0.05249999999999977 Q 0.111 0.03599999999999981 0.1215 0.025499999999999634 Q 0.132 0.01499999999999968 0.1485 0.01499999999999968 L 0.315 0.01499999999999968 Q 0.3315 0.01499999999999968 0.342 0.025499999999999634 Q 0.3525 0.03599999999999981 0.3525 0.05249999999999977 L 0.3525 0.8639999999999997 L 0.8175 0.8639999999999997 Q 0.834 0.8639999999999997 0.8445 0.8744999999999997 Q 0.855 0.8849999999999998 0.855 0.9014999999999997 L 0.855 1.0274999999999996 Q 0.855 1.0439999999999998 0.8445 1.0544999999999998 Q 0.834 1.0649999999999997 0.8175 1.0649999999999997 L 0.1485 1.0649999999999997 M 1.03051904296875 1.0649999999999997 Q 1.0140190429687501 1.0649999999999997 1.00351904296875 1.0544999999999998 Q 0.99301904296875 1.0439999999999998 0.99301904296875 1.0274999999999996 L 0.99301904296875 0.05249999999999977 Q 0.99301904296875 0.03599999999999981 1.00351904296875 0.025499999999999634 Q 1.0140190429687501 0.01499999999999968 1.03051904296875 0.01499999999999968 L 1.20001904296875 0.01499999999999968 Q 1.21651904296875 0.01499999999999968 1.22701904296875 0.025499999999999634 Q 1.23751904296875 0.03599999999999981 1.23751904296875 0.05249999999999977 L 1.23751904296875 1.0274999999999996 Q 1.23751904296875 1.0439999999999998 1.22701904296875 1.0544999999999998 Q 1.21651904296875 1.0649999999999997 1.20001904296875 1.0649999999999997 L 1.03051904296875 1.0649999999999997 M 1.7624802246093751 1.0649999999999997 Q 1.7384802246093751 1.0649999999999997 1.724230224609375 1.0522499999999997 Q 1.709980224609375 1.0394999999999996 1.703980224609375 1.0214999999999996 L 1.388980224609375 0.05999999999999961 Q 1.387480224609375 0.05249999999999977 1.387480224609375 0.046499999999999764 Q 1.387480224609375 0.03449999999999975 1.396480224609375 0.024749999999999606 Q 1.405480224609375 0.01499999999999968 1.418980224609375 0.01499999999999968 L 1.576480224609375 0.01499999999999968 Q 1.598980224609375 0.01499999999999968 1.611730224609375 0.02774999999999972 Q 1.624480224609375 0.04049999999999976 1.627480224609375 0.05099999999999971 L 1.861480224609375 0.7844999999999998 L 2.093980224609375 0.05099999999999971 Q 2.098480224609375 0.04049999999999976 2.110480224609375 0.02774999999999972 Q 2.122480224609375 0.01499999999999968 2.144980224609375 0.01499999999999968 L 2.302480224609375 0.01499999999999968 Q 2.3159802246093752 0.01499999999999968 2.324980224609375 0.024749999999999606 Q 2.333980224609375 0.03449999999999975 2.333980224609375 0.046499999999999764 Q 2.333980224609375 0.05249999999999977 2.332480224609375 0.05999999999999961 L 2.017480224609375 1.0214999999999996 Q 2.012980224609375 1.0394999999999996 1.998730224609375 1.0522499999999997 Q 1.9844802246093751 1.0649999999999997 1.958980224609375 1.0649999999999997 L 1.7624802246093751 1.0649999999999997 M 2.521455322265625 1.0649999999999997 Q 2.504955322265625 1.0649999999999997 2.494455322265625 1.0544999999999998 Q 2.483955322265625 1.0439999999999998 2.483955322265625 1.0274999999999996 L 2.483955322265625 0.05249999999999977 Q 2.483955322265625 0.03599999999999981 2.494455322265625 0.025499999999999634 Q 2.504955322265625 0.01499999999999968 2.521455322265625 0.01499999999999968 L 3.2009553222656253 0.01499999999999968 Q 3.217455322265625 0.01499999999999968 3.227955322265625 0.025499999999999634 Q 3.238455322265625 0.03599999999999981 3.238455322265625 0.05249999999999977 L 3.238455322265625 0.17249999999999965 Q 3.238455322265625 0.18749999999999967 3.227955322265625 0.19799999999999973 Q 3.217455322265625 0.20849999999999969 3.2009553222656253 0.20849999999999969 L 2.714955322265625 0.20849999999999969 L 2.714955322265625 0.44399999999999973 L 3.167955322265625 0.44399999999999973 Q 3.184455322265625 0.44399999999999973 3.194955322265625 0.4544999999999997 Q 3.205455322265625 0.46499999999999975 3.205455322265625 0.4814999999999997 L 3.205455322265625 0.5924999999999997 Q 3.205455322265625 0.6074999999999997 3.194955322265625 0.6179999999999997 Q 3.184455322265625 0.6284999999999997 3.167955322265625 0.6284999999999997 L 2.714955322265625 0.6284999999999997 L 2.714955322265625 0.8714999999999997 L 3.212955322265625 0.8714999999999997 Q 3.229455322265625 0.8714999999999997 3.239955322265625 0.8819999999999997 Q 3.250455322265625 0.8924999999999997 3.250455322265625 0.9089999999999997 L 3.250455322265625 1.0274999999999996 Q 3.250455322265625 1.0439999999999998 3.239955322265625 1.0544999999999998 Q 3.229455322265625 1.0649999999999997 3.212955322265625 1.0649999999999997 L 2.521455322265625 1.0649999999999997 M 3.79797509765625 1.0649999999999997 Q 3.78147509765625 1.0649999999999997 3.77097509765625 1.0544999999999998 Q 3.76047509765625 1.0439999999999998 3.76047509765625 1.0274999999999996 L 3.76047509765625 0.05249999999999977 Q 3.76047509765625 0.03599999999999981 3.77097509765625 0.025499999999999634 Q 3.78147509765625 0.01499999999999968 3.79797509765625 0.01499999999999968 L 4.46697509765625 0.01499999999999968 Q 4.48347509765625 0.01499999999999968 4.49397509765625 0.025499999999999634 Q 4.50447509765625 0.03599999999999981 4.50447509765625 0.05249999999999977 L 4.50447509765625 0.17999999999999972 Q 4.50447509765625 0.19649999999999967 4.49397509765625 0.20699999999999974 Q 4.48347509765625 0.2174999999999997 4.46697509765625 0.2174999999999997 L 3.99447509765625 0.2174999999999997 L 3.99447509765625 0.47099999999999975 L 4.43697509765625 0.47099999999999975 Q 4.45347509765625 0.47099999999999975 4.46397509765625 0.4814999999999997 Q 4.47447509765625 0.49199999999999966 4.47447509765625 0.5084999999999997 L 4.47447509765625 0.6359999999999997 Q 4.47447509765625 0.6509999999999997 4.46397509765625 0.6614999999999998 Q 4.45347509765625 0.6719999999999997 4.43697509765625 0.6719999999999997 L 3.99447509765625 0.6719999999999997 L 3.99447509765625 1.0274999999999996 Q 3.99447509765625 1.0439999999999998 3.9839750976562502 1.0544999999999998 Q 3.97347509765625 1.0649999999999997 3.95697509765625 1.0649999999999997 L 3.79797509765625 1.0649999999999997 M 5.0834809570312505 1.0799999999999996 Q 4.94698095703125 1.0799999999999996 4.84798095703125 1.0349999999999997 Q 4.74898095703125 0.9899999999999998 4.69348095703125 0.8992499999999997 Q 4.63798095703125 0.8084999999999998 4.63348095703125 0.6704999999999997 Q 4.63198095703125 0.6059999999999997 4.63198095703125 0.5422499999999997 Q 4.63198095703125 0.4784999999999997 4.63348095703125 0.41249999999999976 Q 4.63798095703125 0.27749999999999975 4.69423095703125 0.1852499999999997 Q 4.75048095703125 0.09299999999999975 4.85023095703125 0.046499999999999764 Q 4.94998095703125 -2.220446049250313e-16 5.0834809570312505 -2.220446049250313e-16 Q 5.21548095703125 -2.220446049250313e-16 5.31523095703125 0.046499999999999764 Q 5.41498095703125 0.09299999999999975 5.47198095703125 0.1852499999999997 Q 5.52898095703125 0.27749999999999975 5.53198095703125 0.41249999999999976 Q 5.53498095703125 0.4784999999999997 5.53498095703125 0.5422499999999997 Q 5.53498095703125 0.6059999999999997 5.53198095703125 0.6704999999999997 Q 5.5274809570312495 0.8084999999999998 5.47198095703125 0.8992499999999997 Q 5.41648095703125 0.9899999999999998 5.3174809570312505 1.0349999999999997 Q 5.21848095703125 1.0799999999999996 5.0834809570312505 1.0799999999999996 M 5.0834809570312505 0.8864999999999997 Q 5.17048095703125 0.8864999999999997 5.22673095703125 0.8332499999999997 Q 5.28298095703125 0.7799999999999997 5.28598095703125 0.6629999999999997 Q 5.28898095703125 0.5969999999999998 5.28898095703125 0.5392499999999997 Q 5.28898095703125 0.4814999999999997 5.28598095703125 0.4169999999999997 Q 5.28448095703125 0.33899999999999975 5.25748095703125 0.28949999999999976 Q 5.23048095703125 0.23999999999999966 5.18623095703125 0.21674999999999967 Q 5.14198095703125 0.19349999999999967 5.0834809570312505 0.19349999999999967 Q 5.02498095703125 0.19349999999999967 4.97998095703125 0.21674999999999967 Q 4.93498095703125 0.23999999999999966 4.90873095703125 0.28949999999999976 Q 4.88248095703125 0.33899999999999975 4.87948095703125 0.4169999999999997 Q 4.87798095703125 0.4814999999999997 4.87798095703125 0.5392499999999997 Q 4.87798095703125 0.5969999999999998 4.87948095703125 0.6629999999999997 Q 4.88398095703125 0.7799999999999997 4.93948095703125 0.8332499999999997 Q 4.99498095703125 0.8864999999999997 5.0834809570312505 0.8864999999999997 M 6.1379853515625005 1.0799999999999996 Q 6.0014853515625 1.0799999999999996 5.9024853515625 1.0349999999999997 Q 5.8034853515625 0.9899999999999998 5.7479853515625 0.8992499999999997 Q 5.6924853515625 0.8084999999999998 5.6879853515625 0.6704999999999997 Q 5.6864853515625 0.6059999999999997 5.6864853515625 0.5422499999999997 Q 5.6864853515625 0.4784999999999997 5.6879853515625 0.41249999999999976 Q 5.6924853515625 0.27749999999999975 5.7487353515625 0.1852499999999997 Q 5.8049853515625 0.09299999999999975 5.9047353515625 0.046499999999999764 Q 6.0044853515625 -2.220446049250313e-16 6.1379853515625005 -2.220446049250313e-16 Q 6.2699853515625 -2.220446049250313e-16 6.3697353515625 0.046499999999999764 Q 6.4694853515625 0.09299999999999975 6.5264853515625 0.1852499999999997 Q 6.5834853515625 0.27749999999999975 6.5864853515625 0.41249999999999976 Q 6.5894853515625 0.4784999999999997 6.5894853515625 0.5422499999999997 Q 6.5894853515625 0.6059999999999997 6.5864853515625 0.6704999999999997 Q 6.5819853515624995 0.8084999999999998 6.5264853515625 0.8992499999999997 Q 6.4709853515625 0.9899999999999998 6.3719853515625005 1.0349999999999997 Q 6.2729853515625 1.0799999999999996 6.1379853515625005 1.0799999999999996 M 6.1379853515625005 0.8864999999999997 Q 6.2249853515625 0.8864999999999997 6.2812353515625 0.8332499999999997 Q 6.3374853515625 0.7799999999999997 6.3404853515625 0.6629999999999997 Q 6.3434853515625 0.5969999999999998 6.3434853515625 0.5392499999999997 Q 6.3434853515625 0.4814999999999997 6.3404853515625 0.4169999999999997 Q 6.3389853515625 0.33899999999999975 6.3119853515625 0.28949999999999976 Q 6.2849853515625 0.23999999999999966 6.2407353515625 0.21674999999999967 Q 6.1964853515625 0.19349999999999967 6.1379853515625005 0.19349999999999967 Q 6.0794853515625 0.19349999999999967 6.0344853515625 0.21674999999999967 Q 5.9894853515625 0.23999999999999966 5.9632353515625 0.28949999999999976 Q 5.9369853515625 0.33899999999999975 5.9339853515625 0.4169999999999997 Q 5.9324853515625 0.4814999999999997 5.9324853515625 0.5392499999999997 Q 5.9324853515625 0.5969999999999998 5.9339853515625 0.6629999999999997 Q 5.9384853515625 0.7799999999999997 5.9939853515625 0.8332499999999997 Q 6.0494853515625 0.8864999999999997 6.1379853515625005 0.8864999999999997 M 7.025953857421875 1.0649999999999997 Q 7.0094538574218745 1.0649999999999997 6.998953857421875 1.0544999999999998 Q 6.988453857421875 1.0439999999999998 6.988453857421875 1.0274999999999996 L 6.988453857421875 0.2234999999999997 L 6.715453857421875 0.2234999999999997 Q 6.700453857421875 0.2234999999999997 6.689953857421875 0.21299999999999975 Q 6.679453857421875 0.20249999999999968 6.679453857421875 0.18749999999999967 L 6.679453857421875 0.05249999999999977 Q 6.679453857421875 0.03599999999999981 6.689953857421875 0.025499999999999634 Q 6.700453857421875 0.01499999999999968 6.715453857421875 0.01499999999999968 L 7.501453857421875 0.01499999999999968 Q 7.517953857421875 0.01499999999999968 7.528453857421875 0.025499999999999634 Q 7.538953857421875 0.03599999999999981 7.538953857421875 0.05249999999999977 L 7.538953857421875 0.18749999999999967 Q 7.538953857421875 0.20249999999999968 7.528453857421875 0.21299999999999975 Q 7.517953857421875 0.2234999999999997 7.501453857421875 0.2234999999999997 L 7.229953857421875 0.2234999999999997 L 7.229953857421875 1.0274999999999996 Q 7.229953857421875 1.0439999999999998 7.219453857421875 1.0544999999999998 Q 7.208953857421875 1.0649999999999997 7.192453857421875 1.0649999999999997 L 7.025953857421875 1.0649999999999997 M 7.72046044921875 1.0649999999999997 Q 7.70396044921875 1.0649999999999997 7.69346044921875 1.0544999999999998 Q 7.68296044921875 1.0439999999999998 7.68296044921875 1.0274999999999996 L 7.68296044921875 0.05249999999999977 Q 7.68296044921875 0.03599999999999981 7.69346044921875 0.025499999999999634 Q 7.70396044921875 0.01499999999999968 7.72046044921875 0.01499999999999968 L 8.16596044921875 0.01499999999999968 Q 8.29046044921875 0.01499999999999968 8.36996044921875 0.05099999999999971 Q 8.44946044921875 0.08699999999999974 8.48771044921875 0.1529999999999997 Q 8.52596044921875 0.21899999999999975 8.52596044921875 0.30749999999999966 Q 8.52596044921875 0.36299999999999966 8.50571044921875 0.4049999999999997 Q 8.485460449218749 0.44699999999999973 8.45621044921875 0.47399999999999975 Q 8.42696044921875 0.5009999999999997 8.39996044921875 0.5144999999999997 Q 8.45846044921875 0.5414999999999998 8.50271044921875 0.6037499999999998 Q 8.54696044921875 0.6659999999999997 8.54696044921875 0.7514999999999997 Q 8.54696044921875 0.8459999999999998 8.50496044921875 0.9164999999999998 Q 8.46296044921875 0.9869999999999998 8.38046044921875 1.0259999999999998 Q 8.297960449218749 1.0649999999999997 8.17946044921875 1.0649999999999997 L 7.72046044921875 1.0649999999999997 M 7.92146044921875 0.8894999999999997 L 8.15096044921875 0.8894999999999997 Q 8.22446044921875 0.8894999999999997 8.26196044921875 0.8482499999999997 Q 8.29946044921875 0.8069999999999997 8.29946044921875 0.7499999999999998 Q 8.29946044921875 0.6914999999999998 8.26121044921875 0.6517499999999997 Q 8.22296044921875 0.6119999999999997 8.15096044921875 0.6119999999999997 L 7.92146044921875 0.6119999999999997 L 7.92146044921875 0.8894999999999997 M 7.92146044921875 0.43949999999999967 L 8.13746044921875 0.43949999999999967 Q 8.20796044921875 0.43949999999999967 8.24321044921875 0.40424999999999967 Q 8.27846044921875 0.36899999999999966 8.27846044921875 0.31349999999999967 Q 8.27846044921875 0.2579999999999997 8.24321044921875 0.22424999999999973 Q 8.20796044921875 0.19049999999999967 8.13746044921875 0.19049999999999967 L 7.92146044921875 0.19049999999999967 L 7.92146044921875 0.43949999999999967 M 8.648956787109375 1.0649999999999997 Q 8.635456787109375 1.0649999999999997 8.626456787109374 1.0552499999999998 Q 8.617456787109376 1.0454999999999997 8.617456787109376 1.0334999999999996 Q 8.617456787109376 1.0259999999999998 8.618956787109376 1.0199999999999998 L 8.975956787109375 0.05549999999999966 Q 8.980456787109375 0.0389999999999997 8.993956787109376 0.02699999999999969 Q 9.007456787109374 0.01499999999999968 9.031456787109375 0.01499999999999968 L 9.223456787109376 0.01499999999999968 Q 9.247456787109375 0.01499999999999968 9.260956787109375 0.02699999999999969 Q 9.274456787109376 0.0389999999999997 9.278956787109376 0.05549999999999966 L 9.635956787109375 1.0199999999999998 Q 9.637456787109375 1.0259999999999998 9.637456787109375 1.0334999999999996 Q 9.637456787109375 1.0454999999999997 9.628456787109375 1.0552499999999998 Q 9.619456787109375 1.0649999999999997 9.605956787109374 1.0649999999999997 L 9.449956787109375 1.0649999999999997 Q 9.427456787109374 1.0649999999999997 9.416956787109376 1.0544999999999998 Q 9.406456787109375 1.0439999999999998 9.403456787109375 1.0349999999999997 L 9.338956787109375 0.8669999999999998 L 8.915956787109375 0.8669999999999998 L 8.851456787109376 1.0349999999999997 Q 8.848456787109376 1.0439999999999998 8.837956787109375 1.0544999999999998 Q 8.827456787109375 1.0649999999999997 8.804956787109376 1.0649999999999997 L 8.648956787109375 1.0649999999999997 M 8.971456787109375 0.6734999999999998 L 9.281956787109374 0.6734999999999998 L 9.127456787109375 0.24149999999999971 L 8.971456787109375 0.6734999999999998 M 9.803926025390625 1.0649999999999997 Q 9.787426025390625 1.0649999999999997 9.776926025390624 1.0544999999999998 Q 9.766426025390626 1.0439999999999998 9.766426025390626 1.0274999999999996 L 9.766426025390626 0.05249999999999977 Q 9.766426025390626 0.03599999999999981 9.776926025390624 0.025499999999999634 Q 9.787426025390625 0.01499999999999968 9.803926025390625 0.01499999999999968 L 9.970426025390625 0.01499999999999968 Q 9.986926025390625 0.01499999999999968 9.997426025390626 0.025499999999999634 Q 10.007926025390624 0.03599999999999981 10.007926025390624 0.05249999999999977 L 10.007926025390624 0.8639999999999997 L 10.472926025390626 0.8639999999999997 Q 10.489426025390625 0.8639999999999997 10.499926025390625 0.8744999999999997 Q 10.510426025390625 0.8849999999999998 10.510426025390625 0.9014999999999997 L 10.510426025390625 1.0274999999999996 Q 10.510426025390625 1.0439999999999998 10.499926025390625 1.0544999999999998 Q 10.489426025390625 1.0649999999999997 10.472926025390626 1.0649999999999997 L 9.803926025390625 1.0649999999999997 M 10.685945068359375 1.0649999999999997 Q 10.669445068359375 1.0649999999999997 10.658945068359374 1.0544999999999998 Q 10.648445068359376 1.0439999999999998 10.648445068359376 1.0274999999999996 L 10.648445068359376 0.05249999999999977 Q 10.648445068359376 0.03599999999999981 10.658945068359374 0.025499999999999634 Q 10.669445068359375 0.01499999999999968 10.685945068359375 0.01499999999999968 L 10.852445068359375 0.01499999999999968 Q 10.868945068359375 0.01499999999999968 10.879445068359376 0.025499999999999634 Q 10.889945068359374 0.03599999999999981 10.889945068359374 0.05249999999999977 L 10.889945068359374 0.8639999999999997 L 11.354945068359376 0.8639999999999997 Q 11.371445068359375 0.8639999999999997 11.381945068359375 0.8744999999999997 Q 11.392445068359375 0.8849999999999998 11.392445068359375 0.9014999999999997 L 11.392445068359375 1.0274999999999996 Q 11.392445068359375 1.0439999999999998 11.381945068359375 1.0544999999999998 Q 11.371445068359375 1.0649999999999997 11.354945068359376 1.0649999999999997 L 10.685945068359375 1.0649999999999997" fill="#000000" fill-rule="nonzero"></path></g><g><path d=" M 0.0825 1.9548749999999997 Q 0.07425 1.9548749999999997 0.06975 1.9499999999999997 Q 0.06525 1.9451249999999998 0.06525 1.9376249999999997 L 0.06525 1.4478749999999998 Q 0.06525 1.4396249999999997 0.06975 1.4347499999999997 Q 0.07425 1.4298749999999996 0.0825 1.4298749999999996 L 0.3885 1.4298749999999996 Q 0.39675 1.4298749999999996 0.401625 1.4347499999999997 Q 0.40650000000000003 1.4396249999999997 0.40650000000000003 1.4478749999999998 L 0.40650000000000003 1.4778749999999996 Q 0.40650000000000003 1.4861249999999997 0.401625 1.4906249999999996 Q 0.39675 1.4951249999999998 0.3885 1.4951249999999998 L 0.138 1.4951249999999998 L 0.138 1.6698749999999998 L 0.3735 1.6698749999999998 Q 0.38175000000000003 1.6698749999999998 0.386625 1.6747499999999997 Q 0.3915 1.6796249999999997 0.3915 1.6878749999999996 L 0.3915 1.7178749999999996 Q 0.3915 1.7253749999999997 0.386625 1.7302499999999996 Q 0.38175000000000003 1.7351249999999996 0.3735 1.7351249999999996 L 0.138 1.7351249999999996 L 0.138 1.9376249999999997 Q 0.138 1.9451249999999998 0.133125 1.9499999999999997 Q 0.12825 1.9548749999999997 0.12 1.9548749999999997 L 0.0825 1.9548749999999997 M 0.6896096191406249 1.9623749999999998 Q 0.6251096191406249 1.9623749999999998 0.579359619140625 1.9402499999999996 Q 0.533609619140625 1.9181249999999996 0.5088596191406249 1.8719999999999997 Q 0.48410961914062495 1.8258749999999997 0.48110961914062494 1.7561249999999997 Q 0.4803596191406249 1.7231249999999996 0.4803596191406249 1.6927499999999998 Q 0.4803596191406249 1.6623749999999997 0.48110961914062494 1.6293749999999996 Q 0.48410961914062495 1.5603749999999996 0.509984619140625 1.5142499999999997 Q 0.535859619140625 1.4681249999999997 0.5819846191406249 1.4452499999999997 Q 0.6281096191406249 1.4223749999999997 0.6896096191406249 1.4223749999999997 Q 0.750359619140625 1.4223749999999997 0.796484619140625 1.4452499999999997 Q 0.8426096191406249 1.4681249999999997 0.8688596191406249 1.5142499999999997 Q 0.8951096191406249 1.5603749999999996 0.897359619140625 1.6293749999999996 Q 0.898859619140625 1.6623749999999997 0.898859619140625 1.6927499999999998 Q 0.898859619140625 1.7231249999999996 0.897359619140625 1.7561249999999997 Q 0.8951096191406249 1.8258749999999997 0.8699846191406249 1.8719999999999997 Q 0.844859619140625 1.9181249999999996 0.799109619140625 1.9402499999999996 Q 0.7533596191406249 1.9623749999999998 0.6896096191406249 1.9623749999999998 M 0.6896096191406249 1.8986249999999998 Q 0.746609619140625 1.8986249999999998 0.7829846191406249 1.8641249999999996 Q 0.8193596191406249 1.8296249999999996 0.8223596191406249 1.7523749999999998 Q 0.8238596191406249 1.7186249999999996 0.8238596191406249 1.6919999999999997 Q 0.8238596191406249 1.6653749999999996 0.8223596191406249 1.6323749999999997 Q 0.820859619140625 1.5806249999999997 0.803234619140625 1.5483749999999996 Q 0.785609619140625 1.5161249999999997 0.756359619140625 1.5011249999999996 Q 0.727109619140625 1.4861249999999997 0.6896096191406249 1.4861249999999997 Q 0.6521096191406249 1.4861249999999997 0.6228596191406249 1.5011249999999996 Q 0.5936096191406249 1.5161249999999997 0.5759846191406249 1.5483749999999996 Q 0.5583596191406249 1.5806249999999997 0.556109619140625 1.6323749999999997 Q 0.5553596191406249 1.6653749999999996 0.5553596191406249 1.6919999999999997 Q 0.5553596191406249 1.7186249999999996 0.556109619140625 1.7523749999999998 Q 0.559109619140625 1.8296249999999996 0.5958596191406249 1.8641249999999996 Q 0.632609619140625 1.8986249999999998 0.6896096191406249 1.8986249999999998 M 1.0267360839843749 1.9548749999999997 Q 1.0184860839843748 1.9548749999999997 1.0139860839843748 1.9499999999999997 Q 1.009486083984375 1.9451249999999998 1.009486083984375 1.9376249999999997 L 1.009486083984375 1.4478749999999998 Q 1.009486083984375 1.4396249999999997 1.0139860839843748 1.4347499999999997 Q 1.0184860839843748 1.4298749999999996 1.0267360839843749 1.4298749999999996 L 1.209736083984375 1.4298749999999996 Q 1.2944860839843748 1.4298749999999996 1.343986083984375 1.4696249999999997 Q 1.3934860839843748 1.5093749999999997 1.3934860839843748 1.5873749999999998 Q 1.3934860839843748 1.6451249999999997 1.3646110839843748 1.6814999999999998 Q 1.3357360839843748 1.7178749999999996 1.286236083984375 1.7321249999999997 L 1.4017360839843749 1.9316249999999997 Q 1.4039860839843747 1.9361249999999997 1.4039860839843747 1.9398749999999998 Q 1.4039860839843747 1.9458749999999998 1.399111083984375 1.9503749999999997 Q 1.3942360839843748 1.9548749999999997 1.3882360839843748 1.9548749999999997 L 1.352236083984375 1.9548749999999997 Q 1.339486083984375 1.9548749999999997 1.3334860839843747 1.9481249999999997 Q 1.327486083984375 1.9413749999999996 1.3229860839843748 1.9346249999999996 L 1.2142360839843749 1.7441249999999997 L 1.0829860839843748 1.7441249999999997 L 1.0829860839843748 1.9376249999999997 Q 1.0829860839843748 1.9451249999999998 1.0781110839843748 1.9499999999999997 Q 1.0732360839843749 1.9548749999999997 1.0649860839843748 1.9548749999999997 L 1.0267360839843749 1.9548749999999997 M 1.0829860839843748 1.6803749999999997 L 1.2067360839843748 1.6803749999999997 Q 1.262986083984375 1.6803749999999997 1.290736083984375 1.6567499999999997 Q 1.3184860839843748 1.6331249999999997 1.3184860839843748 1.5866249999999997 Q 1.3184860839843748 1.5408749999999998 1.291111083984375 1.5168749999999998 Q 1.2637360839843748 1.4928749999999997 1.2067360839843748 1.4928749999999997 L 1.0829860839843748 1.4928749999999997 L 1.0829860839843748 1.6803749999999997 M 1.7999860839843747 1.9548749999999997 Q 1.7924860839843748 1.9548749999999997 1.7876110839843746 1.9499999999999997 Q 1.7827360839843747 1.9451249999999998 1.7827360839843747 1.9376249999999997 L 1.7827360839843747 1.4966249999999997 L 1.6387360839843748 1.4966249999999997 Q 1.6312360839843747 1.4966249999999997 1.6263610839843747 1.4917499999999997 Q 1.6214860839843748 1.4868749999999997 1.6214860839843748 1.4793749999999997 L 1.6214860839843748 1.4478749999999998 Q 1.6214860839843748 1.4396249999999997 1.6263610839843747 1.4347499999999997 Q 1.6312360839843747 1.4298749999999996 1.6387360839843748 1.4298749999999996 L 2.0002360839843747 1.4298749999999996 Q 2.0084860839843746 1.4298749999999996 2.0133610839843747 1.4347499999999997 Q 2.018236083984375 1.4396249999999997 2.018236083984375 1.4478749999999998 L 2.018236083984375 1.4793749999999997 Q 2.018236083984375 1.4868749999999997 2.0133610839843747 1.4917499999999997 Q 2.0084860839843746 1.4966249999999997 2.0002360839843747 1.4966249999999997 L 1.8569860839843748 1.4966249999999997 L 1.8569860839843748 1.9376249999999997 Q 1.8569860839843748 1.9451249999999998 1.8521110839843749 1.9499999999999997 Q 1.8472360839843747 1.9548749999999997 1.8389860839843748 1.9548749999999997 L 1.7999860839843747 1.9548749999999997 M 2.120595703125 1.9548749999999997 Q 2.112345703125 1.9548749999999997 2.1078457031249997 1.9499999999999997 Q 2.1033457031249996 1.9451249999999998 2.1033457031249996 1.9376249999999997 L 2.1033457031249996 1.4478749999999998 Q 2.1033457031249996 1.4396249999999997 2.1078457031249997 1.4347499999999997 Q 2.112345703125 1.4298749999999996 2.120595703125 1.4298749999999996 L 2.158845703125 1.4298749999999996 Q 2.1670957031249998 1.4298749999999996 2.171970703125 1.4347499999999997 Q 2.1768457031249997 1.4396249999999997 2.1768457031249997 1.4478749999999998 L 2.1768457031249997 1.6548749999999997 L 2.4348457031249997 1.6548749999999997 L 2.4348457031249997 1.4478749999999998 Q 2.4348457031249997 1.4396249999999997 2.439720703125 1.4347499999999997 Q 2.4445957031249996 1.4298749999999996 2.452095703125 1.4298749999999996 L 2.4903457031249996 1.4298749999999996 Q 2.498595703125 1.4298749999999996 2.5034707031249996 1.4347499999999997 Q 2.508345703125 1.4396249999999997 2.508345703125 1.4478749999999998 L 2.508345703125 1.9376249999999997 Q 2.508345703125 1.9451249999999998 2.5034707031249996 1.9499999999999997 Q 2.498595703125 1.9548749999999997 2.4903457031249996 1.9548749999999997 L 2.452095703125 1.9548749999999997 Q 2.4445957031249996 1.9548749999999997 2.439720703125 1.9499999999999997 Q 2.4348457031249997 1.9451249999999998 2.4348457031249997 1.9376249999999997 L 2.4348457031249997 1.7223749999999998 L 2.1768457031249997 1.7223749999999998 L 2.1768457031249997 1.9376249999999997 Q 2.1768457031249997 1.9451249999999998 2.171970703125 1.9499999999999997 Q 2.1670957031249998 1.9548749999999997 2.158845703125 1.9548749999999997 L 2.120595703125 1.9548749999999997 M 2.657212646484375 1.9548749999999997 Q 2.648962646484375 1.9548749999999997 2.644462646484375 1.9499999999999997 Q 2.6399626464843746 1.9451249999999998 2.6399626464843746 1.9376249999999997 L 2.6399626464843746 1.4478749999999998 Q 2.6399626464843746 1.4396249999999997 2.644462646484375 1.4347499999999997 Q 2.648962646484375 1.4298749999999996 2.657212646484375 1.4298749999999996 L 2.966962646484375 1.4298749999999996 Q 2.975212646484375 1.4298749999999996 2.9797126464843746 1.4347499999999997 Q 2.984212646484375 1.4396249999999997 2.984212646484375 1.4478749999999998 L 2.984212646484375 1.4763749999999995 Q 2.984212646484375 1.4846249999999996 2.9797126464843746 1.4891249999999996 Q 2.975212646484375 1.4936249999999998 2.966962646484375 1.4936249999999998 L 2.7119626464843747 1.4936249999999998 L 2.7119626464843747 1.6578749999999998 L 2.950462646484375 1.6578749999999998 Q 2.9587126464843747 1.6578749999999998 2.963212646484375 1.6627499999999997 Q 2.967712646484375 1.6676249999999997 2.967712646484375 1.6758749999999996 L 2.967712646484375 1.7036249999999997 Q 2.967712646484375 1.7111249999999998 2.963212646484375 1.7159999999999997 Q 2.9587126464843747 1.7208749999999997 2.950462646484375 1.7208749999999997 L 2.7119626464843747 1.7208749999999997 L 2.7119626464843747 1.8911249999999997 L 2.972962646484375 1.8911249999999997 Q 2.9812126464843747 1.8911249999999997 2.985712646484375 1.8956249999999997 Q 2.990212646484375 1.9001249999999996 2.990212646484375 1.9083749999999997 L 2.990212646484375 1.9376249999999997 Q 2.990212646484375 1.9451249999999998 2.985712646484375 1.9499999999999997 Q 2.9812126464843747 1.9548749999999997 2.972962646484375 1.9548749999999997 L 2.657212646484375 1.9548749999999997 M 3.2977225341796874 1.9548749999999997 Q 3.2894725341796875 1.9548749999999997 3.2849725341796874 1.9499999999999997 Q 3.280472534179687 1.9451249999999998 3.280472534179687 1.9376249999999997 L 3.280472534179687 1.4478749999999998 Q 3.280472534179687 1.4396249999999997 3.2849725341796874 1.4347499999999997 Q 3.2894725341796875 1.4298749999999996 3.2977225341796874 1.4298749999999996 L 3.6037225341796875 1.4298749999999996 Q 3.6119725341796873 1.4298749999999996 3.6168475341796875 1.4347499999999997 Q 3.6217225341796873 1.4396249999999997 3.6217225341796873 1.4478749999999998 L 3.6217225341796873 1.4778749999999996 Q 3.6217225341796873 1.4861249999999997 3.6168475341796875 1.4906249999999996 Q 3.6119725341796873 1.4951249999999998 3.6037225341796875 1.4951249999999998 L 3.3532225341796873 1.4951249999999998 L 3.3532225341796873 1.6698749999999998 L 3.5887225341796873 1.6698749999999998 Q 3.596972534179687 1.6698749999999998 3.6018475341796874 1.6747499999999997 Q 3.6067225341796876 1.6796249999999997 3.6067225341796876 1.6878749999999996 L 3.6067225341796876 1.7178749999999996 Q 3.6067225341796876 1.7253749999999997 3.6018475341796874 1.7302499999999996 Q 3.596972534179687 1.7351249999999996 3.5887225341796873 1.7351249999999996 L 3.3532225341796873 1.7351249999999996 L 3.3532225341796873 1.9376249999999997 Q 3.3532225341796873 1.9451249999999998 3.3483475341796876 1.9499999999999997 Q 3.3434725341796874 1.9548749999999997 3.3352225341796875 1.9548749999999997 L 3.2977225341796874 1.9548749999999997 M 3.6520634765624997 1.9548749999999997 Q 3.6460634765625 1.9548749999999997 3.6415634765625 1.9503749999999997 Q 3.6370634765625 1.9458749999999998 3.6370634765625 1.9398749999999998 Q 3.6370634765625 1.9361249999999997 3.6378134765625 1.9316249999999997 L 3.8238134765625 1.4463749999999997 Q 3.8268134765625 1.4388749999999997 3.8320634765625 1.4343749999999997 Q 3.8373134765625 1.4298749999999996 3.8478134765625 1.4298749999999996 L 3.8988134765624998 1.4298749999999996 Q 3.9093134765624997 1.4298749999999996 3.9145634765625 1.4343749999999997 Q 3.9198134765625 1.4388749999999997 3.9228134765625 1.4463749999999997 L 4.1080634765625 1.9316249999999997 Q 4.1095634765625 1.9361249999999997 4.1095634765625 1.9398749999999998 Q 4.1095634765625 1.9458749999999998 4.1050634765625 1.9503749999999997 Q 4.1005634765625 1.9548749999999997 4.0945634765625 1.9548749999999997 L 4.0563134765625 1.9548749999999997 Q 4.0473134765625 1.9548749999999997 4.0431884765625 1.9503749999999997 Q 4.0390634765625 1.9458749999999998 4.0375634765625 1.9421249999999997 L 3.9963134765625 1.8356249999999996 L 3.7503134765625 1.8356249999999996 L 3.7090634765625 1.9421249999999997 Q 3.7083134765625 1.9458749999999998 3.7038134765625 1.9503749999999997 Q 3.6993134765624998 1.9548749999999997 3.6903134765625 1.9548749999999997 L 3.6520634765624997 1.9548749999999997 M 3.7720634765625 1.7711249999999996 L 3.9745634765625 1.7711249999999996 L 3.8733134765625 1.5048749999999997 L 3.7720634765625 1.7711249999999996 M 4.208175659179687 1.9548749999999997 Q 4.199925659179687 1.9548749999999997 4.195425659179687 1.9499999999999997 Q 4.190925659179687 1.9451249999999998 4.190925659179687 1.9376249999999997 L 4.190925659179687 1.4478749999999998 Q 4.190925659179687 1.4396249999999997 4.195425659179687 1.4347499999999997 Q 4.199925659179687 1.4298749999999996 4.208175659179687 1.4298749999999996 L 4.242675659179687 1.4298749999999996 Q 4.251675659179687 1.4298749999999996 4.256175659179687 1.4339999999999997 Q 4.260675659179687 1.4381249999999997 4.261425659179687 1.4403749999999997 L 4.510425659179687 1.8228749999999998 L 4.510425659179687 1.4478749999999998 Q 4.510425659179687 1.4396249999999997 4.514925659179687 1.4347499999999997 Q 4.519425659179687 1.4298749999999996 4.527675659179687 1.4298749999999996 L 4.563675659179687 1.4298749999999996 Q 4.571925659179687 1.4298749999999996 4.576800659179687 1.4347499999999997 Q 4.581675659179687 1.4396249999999997 4.581675659179687 1.4478749999999998 L 4.581675659179687 1.9368749999999997 Q 4.581675659179687 1.9443749999999997 4.576800659179687 1.9496249999999997 Q 4.571925659179687 1.9548749999999997 4.564425659179687 1.9548749999999997 L 4.528425659179687 1.9548749999999997 Q 4.520175659179687 1.9548749999999997 4.516050659179687 1.9503749999999997 Q 4.511925659179687 1.9458749999999998 4.510425659179687 1.9443749999999997 L 4.262175659179687 1.5656249999999998 L 4.262175659179687 1.9376249999999997 Q 4.262175659179687 1.9451249999999998 4.257300659179687 1.9499999999999997 Q 4.252425659179687 1.9548749999999997 4.244175659179687 1.9548749999999997 L 4.208175659179687 1.9548749999999997 M 4.88205615234375 1.9623749999999998 Q 4.81680615234375 1.9623749999999998 4.77255615234375 1.9421249999999997 Q 4.72830615234375 1.9218749999999998 4.70468115234375 1.8899999999999997 Q 4.68105615234375 1.8581249999999998 4.67955615234375 1.8228749999999998 Q 4.67955615234375 1.8168749999999996 4.684431152343749 1.8119999999999996 Q 4.689306152343749 1.8071249999999996 4.69605615234375 1.8071249999999996 L 4.734306152343749 1.8071249999999996 Q 4.74330615234375 1.8071249999999996 4.74780615234375 1.8116249999999996 Q 4.75230615234375 1.8161249999999998 4.753806152343749 1.8221249999999998 Q 4.758306152343749 1.8401249999999998 4.77255615234375 1.8577499999999998 Q 4.7868061523437495 1.8753749999999998 4.81343115234375 1.8869999999999998 Q 4.84005615234375 1.8986249999999998 4.88205615234375 1.8986249999999998 Q 4.946556152343749 1.8986249999999998 4.97693115234375 1.8757499999999996 Q 5.00730615234375 1.8528749999999996 5.00730615234375 1.8146249999999997 Q 5.00730615234375 1.7883749999999996 4.991181152343749 1.7722499999999997 Q 4.9750561523437495 1.7561249999999997 4.942056152343749 1.7433749999999997 Q 4.90905615234375 1.7306249999999996 4.8565561523437495 1.7156249999999997 Q 4.801806152343749 1.6998749999999996 4.76580615234375 1.6811249999999998 Q 4.72980615234375 1.6623749999999997 4.712181152343749 1.6346249999999998 Q 4.69455615234375 1.6068749999999996 4.69455615234375 1.5641249999999998 Q 4.69455615234375 1.5236249999999996 4.7163061523437495 1.4917499999999997 Q 4.738056152343749 1.4598749999999998 4.779306152343749 1.4411249999999995 Q 4.82055615234375 1.4223749999999997 4.878306152343749 1.4223749999999997 Q 4.924806152343749 1.4223749999999997 4.95968115234375 1.4347499999999997 Q 4.994556152343749 1.4471249999999998 5.017806152343749 1.4677499999999997 Q 5.041056152343749 1.4883749999999996 5.05305615234375 1.5119999999999996 Q 5.065056152343749 1.5356249999999996 5.065806152343749 1.5581249999999998 Q 5.065806152343749 1.5633749999999997 5.062056152343749 1.5682499999999997 Q 5.05830615234375 1.5731249999999997 5.05005615234375 1.5731249999999997 L 5.01030615234375 1.5731249999999997 Q 5.00505615234375 1.5731249999999997 4.99943115234375 1.5701249999999998 Q 4.993806152343749 1.5671249999999997 4.990806152343749 1.5588749999999996 Q 4.98630615234375 1.5281249999999997 4.95630615234375 1.5071249999999996 Q 4.9263061523437495 1.4861249999999997 4.878306152343749 1.4861249999999997 Q 4.829556152343749 1.4861249999999997 4.79918115234375 1.5048749999999997 Q 4.76880615234375 1.5236249999999996 4.76880615234375 1.5633749999999997 Q 4.76880615234375 1.5888749999999998 4.783056152343749 1.6057499999999996 Q 4.79730615234375 1.6226249999999998 4.828056152343749 1.6353749999999998 Q 4.85880615234375 1.6481249999999996 4.90830615234375 1.6623749999999997 Q 4.968306152343749 1.6788749999999997 5.00655615234375 1.6972499999999997 Q 5.0448061523437495 1.7156249999999997 5.063181152343749 1.7429999999999997 Q 5.081556152343749 1.7703749999999996 5.081556152343749 1.8131249999999997 Q 5.081556152343749 1.8603749999999997 5.05680615234375 1.8937499999999996 Q 5.03205615234375 1.9271249999999998 4.987431152343749 1.9447499999999998 Q 4.942806152343749 1.9623749999999998 4.88205615234375 1.9623749999999998" fill="#ba8437" fill-rule="nonzero"></path></g><g clip-path="url(#SvgjsClipPath1003)"><g clip-path="url(#SvgjsClipPath1001a5452af3-0f4e-42ff-80dc-b40da8c7a5e6)"><path d=" M 3.1718881177534004 -4.608952311051578 L 6.2168664108440534 -4.608952311051578 L 3.044978293090653 -1.6791646921480585 L 0 -1.6791646921480585 Z" fill="#000000" transform="matrix(1,0,0,1,0,0)" fill-rule="nonzero"></path></g><g clip-path="url(#SvgjsClipPath1001a5452af3-0f4e-42ff-80dc-b40da8c7a5e6)"><path d=" M 5.0298022175458765 -3.1797876189035197 L 8.07478051063653 -3.1797876189035197 L 4.902892392883128 -0.25 L 1.8579140997924757 -0.25 Z" fill="#ba8437" transform="matrix(1,0,0,1,0,0)" fill-rule="nonzero"></path></g></g></g><defs><clipPath id="SvgjsClipPath1003"><path d=" M 0 -4.608952311051578 h 8.07478051063653 v 4.358952311051578 h -8.07478051063653 Z"></path></clipPath><clipPath id="SvgjsClipPath1001a5452af3-0f4e-42ff-80dc-b40da8c7a5e6"><path d=" M 0 -4.608952311051578 L 8.07478051063653 -4.608952311051578 L 8.07478051063653 -0.25 L 0 -0.25 Z"></path></clipPath></defs></svg>